<?xml version="1.0" encoding="utf-8"?>
<svg viewBox="0 0 118 32" fill="none" xmlns="http://www.w3.org/2000/svg">
  <path d="M44.5333 4.35561H51.9111C53.2444 4.35561 54.5778 4.53338 55.7333 4.88894C56.8889 5.24449 57.9555 5.77783 58.7555 6.48894C59.6444 7.20005 60.2667 8.08894 60.8 9.15561C61.2444 10.2223 61.5111 11.3778 61.5111 12.7112C61.5111 13.7778 61.3333 14.6667 61.0667 15.4667C60.8 16.1778 60.4444 16.8 60.0889 17.3334C59.6444 17.8667 59.2 18.4001 58.6667 18.7556L63.5555 27.2L62.3111 32L57.5111 30.7556L51.3778 20.3556V25.7778H44.5333V4.35561ZM51.3778 14.9334H51.7333C52.5333 14.9334 53.2444 14.7556 53.7778 14.4001C54.3111 14.0445 54.6667 13.4223 54.6667 12.5334C54.6667 11.6445 54.4 11.0223 53.7778 10.6667C53.2444 10.3112 52.5333 10.1334 51.7333 10.1334H51.3778V14.9334Z" fill="#4D4D4D"/>
  <path d="M60.4444 15.1112C60.4444 13.6001 60.7111 12.0889 61.3333 10.7556C61.9555 9.42227 62.7555 8.17783 63.7333 7.20005C64.7111 6.22227 65.9555 5.33339 67.2888 4.80005C68.6222 4.17783 70.1333 3.91116 71.6444 3.91116C73.1555 3.91116 74.6666 4.17783 76 4.80005C77.3333 5.42227 78.5777 6.22227 79.5555 7.20005C80.5333 8.17783 81.4222 9.42227 81.9555 10.7556C82.5777 12.0889 82.8444 13.6001 82.8444 15.1112C82.8444 16.6223 82.5777 18.1334 81.9555 19.4667C81.3333 20.8001 80.5333 22.0445 79.5555 23.0223C78.5777 24.0001 77.3333 24.8889 76 25.4223C74.6666 26.0445 73.1555 26.3112 71.6444 26.3112C70.1333 26.3112 68.6222 26.0445 67.2888 25.4223C65.9555 24.8001 64.7111 24.0001 63.7333 23.0223C62.7555 22.0445 61.8666 20.8001 61.3333 19.4667C60.7111 18.1334 60.4444 16.6223 60.4444 15.1112ZM67.2 15.1112C67.2 15.7334 67.2888 16.3556 67.5555 16.8889C67.8222 17.4223 68.0888 17.9556 68.5333 18.3112C68.9777 18.7556 69.4222 19.0223 69.9555 19.2889C70.4888 19.5556 71.1111 19.6445 71.7333 19.6445C72.3555 19.6445 72.9777 19.5556 73.5111 19.2889C74.0444 19.0223 74.5777 18.7556 74.9333 18.3112C75.3777 17.8667 75.6444 17.4223 75.9111 16.8889C76.1777 16.3556 76.2666 15.7334 76.2666 15.1112C76.2666 14.4889 76.1777 13.8667 75.9111 13.3334C75.6444 12.8001 75.3777 12.2667 74.9333 11.9112C74.4888 11.4667 74.0444 11.2001 73.5111 10.9334C72.9777 10.6667 72.3555 10.5778 71.7333 10.5778C71.1111 10.5778 70.4888 10.6667 69.9555 10.9334C69.4222 11.2001 68.8888 11.4667 68.5333 11.9112C68.0888 12.3556 67.8222 12.8001 67.5555 13.3334C67.3777 13.8667 67.2 14.4889 67.2 15.1112Z" fill="#4D4D4D"/>
  <path d="M 87.111 25.867 L 92.267 25.867 L 100.444 4.356 L 93.689 4.356 L 92.978 6.311 L 86.489 6.311 L 85.778 4.356 L 79.022 4.356 L 87.111 25.867 Z M 91.111 11.022 L 89.689 14.756 L 88.267 11.022 L 91.111 11.022 Z" fill="#4D4D4D" style=""/>
  <path d="M98.8444 25.8667V4.35561H104.8C106.844 4.35561 108.622 4.62227 110.222 5.06672C111.822 5.51116 113.156 6.22227 114.222 7.11116C115.289 8.00005 116.089 9.15561 116.711 10.4889C117.244 11.8223 117.6 13.4223 117.6 15.1112C117.6 16.8889 117.333 18.4001 116.711 19.7334C116.178 21.0667 115.289 22.2223 114.222 23.1112C113.156 24.0001 111.822 24.7112 110.222 25.1556C108.622 25.6 106.844 25.8667 104.8 25.8667H98.8444ZM105.689 19.7334C107.289 19.7334 108.533 19.3778 109.422 18.5778C110.311 17.7778 110.756 16.6223 110.756 15.1112C110.756 13.5112 110.311 12.3556 109.422 11.6445C108.533 10.9334 107.289 10.4889 105.689 10.4889V19.7334Z" fill="#4D4D4D"/>
  <path d="M 27.556 25.778 L 43.022 25.778 L 43.022 20.178 L 34.4 20.178 L 34.4 17.778 L 40.089 17.778 L 40.089 12.444 L 34.4 12.444 L 34.4 9.956 L 43.2 9.956 L 43.2 4.356 L 27.556 4.356 L 27.556 25.778 Z" fill="#FF4758" style="transform-box: fill-box; transform-origin: 50% 50%;" transform="matrix(-1, 0, 0, -1, 0.000004, 0.000002)"/>
  <path d="M -0.655 6.977 L 1.567 2.621 L 5.923 4.844 L 9.123 14.532 L 11.612 7.066 L 16.323 7.066 L 18.812 14.532 L 21.301 7.066 L 28.589 7.066 L 21.478 28.577 L 16.145 28.577 L 14.012 22.088 L 11.789 28.488 L 6.456 28.488 L -0.655 6.977 Z" fill="#FF4758" style="transform-origin: 13.967px 15.599px;" transform="matrix(0, 1, -1, 0, 0.000003, 0.000001)"/>
</svg>